<svg xmlns="http://www.w3.org/2000/svg" viewBox="0 0 560 680" font-family="Inter, system-ui, sans-serif">
  <style>
    .box { fill: #FFFFFF; stroke: #2C2C2C; stroke-width: 1.5; rx: 6; }
    .box-llm { fill: #FFFFFF; stroke: #8C6239; stroke-width: 1.5; rx: 6; }
    .box-route { fill: #FDF8F3; stroke: #8C6239; stroke-width: 1.5; rx: 6; }
    .label { font-size: 13px; fill: #2C2C2C; text-anchor: middle; font-weight: 500; }
    .label-llm { font-size: 13px; fill: #8C6239; text-anchor: middle; font-weight: 500; }
    .sublabel { font-size: 10.5px; fill: #6B6B6B; text-anchor: middle; font-weight: 400; }
    .arrow { stroke: #2C2C2C; stroke-width: 1.5; fill: none; marker-end: url(#arrowhead); }
    .arrow-route { stroke: #8C6239; stroke-width: 1.2; fill: none; stroke-dasharray: 5,3; marker-end: url(#arrowhead-route); }
    .route-label { font-size: 10.5px; fill: #8C6239; text-anchor: start; font-weight: 400; }
  </style>
  <defs>
    <marker id="arrowhead" markerWidth="8" markerHeight="6" refX="8" refY="3" orient="auto">
      <polygon points="0 0, 8 3, 0 6" fill="#2C2C2C"/>
    </marker>
    <marker id="arrowhead-route" markerWidth="7" markerHeight="5" refX="7" refY="2.5" orient="auto">
      <polygon points="0 0, 7 2.5, 0 5" fill="#8C6239"/>
    </marker>
  </defs>

  <!-- Step 1: SPARQL Query -->
  <rect class="box" x="150" y="20" width="260" height="44"/>
  <text class="label" x="280" y="40">SPARQL Query</text>
  <text class="sublabel" x="280" y="55">EUR-Lex endpoint · 890 regulations</text>

  <!-- Arrow -->
  <line class="arrow" x1="280" y1="64" x2="280" y2="98"/>

  <!-- Step 2: Download Texts -->
  <rect class="box" x="150" y="98" width="260" height="44"/>
  <text class="label" x="280" y="118">Download Full Texts</text>
  <text class="sublabel" x="280" y="133">CELLAR API · 5 million words</text>

  <!-- Arrow -->
  <line class="arrow" x1="280" y1="142" x2="280" y2="176"/>

  <!-- Step 3: Extract Preamble -->
  <rect class="box" x="150" y="176" width="260" height="44"/>
  <text class="label" x="280" y="196">Extract Preamble</text>
  <text class="sublabel" x="280" y="211">Title + recitals · ~1,000-3,000 tokens</text>

  <!-- Arrow -->
  <line class="arrow" x1="280" y1="220" x2="280" y2="268"/>

  <!-- Step 4: Classify Domain (LLM) -->
  <rect class="box-llm" x="130" y="268" width="300" height="44"/>
  <text class="label-llm" x="280" y="288">Prompt 1: Classify Domain</text>
  <text class="sublabel" x="280" y="303">Which of 21 EuroVoc domains?</text>

  <!-- Arrow -->
  <line class="arrow" x1="280" y1="312" x2="280" y2="360"/>

  <!-- Step 5: Classify Impact (LLM) -->
  <rect class="box-llm" x="130" y="360" width="300" height="44"/>
  <text class="label-llm" x="280" y="380">Prompt 2: Classify Impact</text>
  <text class="sublabel" x="280" y="395">Routine · Moderate · High</text>

  <!-- Arrow down -->
  <line class="arrow" x1="280" y1="404" x2="280" y2="470"/>

  <!-- Route branch right (if HIGH) -->
  <line class="arrow-route" x1="430" y1="382" x2="470" y2="382"/>
  <text class="route-label" x="478" y="378">If HIGH impact</text>

  <!-- Route box: Claude Briefing -->
  <rect class="box-route" x="470" y="392" width="70" height="30"/>
  <text class="sublabel" x="505" y="411">Claude</text>

  <!-- Arrow from Claude down to a briefing label -->
  <line class="arrow-route" x1="505" y1="422" x2="505" y2="448"/>
  <text class="route-label" x="470" y="462">Editorial Briefing</text>

  <!-- Step 6: Evaluate -->
  <rect class="box" x="130" y="470" width="300" height="44"/>
  <text class="label" x="280" y="490">Compare with EuroVoc</text>
  <text class="sublabel" x="280" y="505">Human ground truth · 21 domains</text>

  <!-- Arrow -->
  <line class="arrow" x1="280" y1="514" x2="280" y2="562"/>

  <!-- Step 7: Agreement Analysis -->
  <rect class="box" x="130" y="562" width="300" height="44"/>
  <text class="label" x="280" y="582">Cross-Model Agreement</text>
  <text class="sublabel" x="280" y="597">4 models · where do they converge?</text>

  <!-- Arrow -->
  <line class="arrow" x1="280" y1="606" x2="280" y2="634"/>

  <!-- Output -->
  <rect class="box" x="130" y="634" width="300" height="36"/>
  <text class="sublabel" x="280" y="656">Classified corpus + disagreement map + briefings</text>
</svg>
