<svg xmlns="http://www.w3.org/2000/svg" viewBox="0 0 560 700" font-family="Inter, system-ui, sans-serif">
  <style>
    .box { fill: #FFFFFF; stroke: #2C2C2C; stroke-width: 1.5; rx: 6; }
    .box-llm { fill: #FFFFFF; stroke: #8C6239; stroke-width: 1.5; rx: 6; }
    .box-route { fill: #FDF8F3; stroke: #8C6239; stroke-width: 1.5; rx: 6; }
    .label { font-size: 13px; fill: #2C2C2C; text-anchor: middle; font-weight: 500; }
    .label-llm { font-size: 13px; fill: #8C6239; text-anchor: middle; font-weight: 500; }
    .sublabel { font-size: 10.5px; fill: #6B6B6B; text-anchor: middle; font-weight: 400; }
    .arrow { stroke: #2C2C2C; stroke-width: 1.5; fill: none; marker-end: url(#arrowhead); }
    .arrow-route { stroke: #8C6239; stroke-width: 1.2; fill: none; stroke-dasharray: 5,3; marker-end: url(#arrowhead-route); }
    .arrow-route-plain { stroke: #8C6239; stroke-width: 1.2; fill: none; stroke-dasharray: 5,3; }
    .route-label { font-size: 10px; fill: #8C6239; font-weight: 400; }
  </style>
  <defs>
    <marker id="arrowhead" markerWidth="8" markerHeight="6" refX="8" refY="3" orient="auto">
      <polygon points="0 0, 8 3, 0 6" fill="#2C2C2C"/>
    </marker>
    <marker id="arrowhead-route" markerWidth="7" markerHeight="5" refX="7" refY="2.5" orient="auto">
      <polygon points="0 0, 7 2.5, 0 5" fill="#8C6239"/>
    </marker>
  </defs>

  <!-- Step 1: SPARQL Query -->
  <rect class="box" x="130" y="20" width="260" height="44"/>
  <text class="label" x="260" y="40">SPARQL Query</text>
  <text class="sublabel" x="260" y="55">EUR-Lex endpoint · 890 regulations</text>

  <line class="arrow" x1="260" y1="64" x2="260" y2="98"/>

  <!-- Step 2: Download Texts -->
  <rect class="box" x="130" y="98" width="260" height="44"/>
  <text class="label" x="260" y="118">Download Full Texts</text>
  <text class="sublabel" x="260" y="133">CELLAR API · 5 million words</text>

  <line class="arrow" x1="260" y1="142" x2="260" y2="176"/>

  <!-- Step 3: Extract Preamble -->
  <rect class="box" x="130" y="176" width="260" height="44"/>
  <text class="label" x="260" y="196">Extract Preamble</text>
  <text class="sublabel" x="260" y="211">Title + recitals · ~1,000–3,000 tokens</text>

  <line class="arrow" x1="260" y1="220" x2="260" y2="268"/>

  <!-- Step 4: Classify Domain (LLM) -->
  <rect class="box-llm" x="110" y="268" width="300" height="44"/>
  <text class="label-llm" x="260" y="288">Prompt 1: Classify Domain</text>
  <text class="sublabel" x="260" y="303">Which of 21 EuroVoc domains?</text>

  <line class="arrow" x1="260" y1="312" x2="260" y2="360"/>

  <!-- Step 5: Classify Impact (LLM) -->
  <rect class="box-llm" x="110" y="360" width="300" height="44"/>
  <text class="label-llm" x="260" y="380">Prompt 2: Classify Impact</text>
  <text class="sublabel" x="260" y="395">Routine · Moderate · High</text>

  <!-- Main arrow down to Evaluate -->
  <line class="arrow" x1="260" y1="404" x2="260" y2="488"/>

  <!-- Route branch: exits right edge of Impact box, goes right, then down -->
  <path class="arrow-route-plain" d="M 410 382 L 475 382 L 475 420"/>
  <!-- Briefing Model box -->
  <rect class="box-route" x="420" y="420" width="110" height="46"/>
  <text class="label-llm" x="475" y="440" font-size="11px">Briefing Model</text>
  <text class="sublabel" x="475" y="454" font-size="9px">full document in</text>
  <!-- Label for the branch -->
  <text class="route-label" x="418" y="374" text-anchor="start">if HIGH</text>

  <!-- Arrow from Briefing Model down and left to Output -->
  <line class="arrow-route-plain" x1="475" y1="466" x2="475" y2="650"/>
  <line class="arrow-route" x1="475" y1="650" x2="410" y2="650"/>
  <text class="route-label" x="480" y="486">Editorial</text>
  <text class="route-label" x="480" y="498">Briefing</text>

  <!-- Step 6: Evaluate -->
  <rect class="box" x="110" y="488" width="300" height="44"/>
  <text class="label" x="260" y="508">Compare with EuroVoc</text>
  <text class="sublabel" x="260" y="523">Human ground truth · 21 domains</text>

  <line class="arrow" x1="260" y1="532" x2="260" y2="580"/>

  <!-- Step 7: Agreement Analysis -->
  <rect class="box" x="110" y="580" width="300" height="44"/>
  <text class="label" x="260" y="600">Cross-Model Agreement</text>
  <text class="sublabel" x="260" y="615">4 models · where do they converge?</text>

  <line class="arrow" x1="260" y1="624" x2="260" y2="636"/>

  <!-- Output -->
  <rect class="box" x="110" y="636" width="300" height="36"/>
  <text class="sublabel" x="260" y="658">Classified corpus + disagreement map + briefings</text>
</svg>
