<svg xmlns="http://www.w3.org/2000/svg" viewBox="0 0 560 585" font-family="Inter, system-ui, sans-serif">
  <style>
    .box { fill: #FFFFFF; stroke: #2C2C2C; stroke-width: 1.5; rx: 6; }
    .box-llm { fill: #FFFFFF; stroke: #8C6239; stroke-width: 1.5; rx: 6; }
    .box-route { fill: #FDF8F3; stroke: #8C6239; stroke-width: 1.5; rx: 6; }
    .label { font-size: 13px; fill: #2C2C2C; text-anchor: middle; font-weight: 500; }
    .label-llm { font-size: 13px; fill: #8C6239; text-anchor: middle; font-weight: 500; }
    .sublabel { font-size: 10.5px; fill: #6B6B6B; text-anchor: middle; font-weight: 400; }
    .arrow { stroke: #2C2C2C; stroke-width: 1.5; fill: none; marker-end: url(#arrowhead); }
    .arrow-route { stroke: #8C6239; stroke-width: 1.2; fill: none; stroke-dasharray: 5,3; marker-end: url(#arrowhead-route); }
    .arrow-route-plain { stroke: #8C6239; stroke-width: 1.2; fill: none; stroke-dasharray: 5,3; }
    .route-label { font-size: 10px; fill: #8C6239; font-weight: 400; }
  </style>
  <defs>
    <marker id="arrowhead" markerWidth="8" markerHeight="6" refX="8" refY="3" orient="auto">
      <polygon points="0 0, 8 3, 0 6" fill="#2C2C2C"/>
    </marker>
    <marker id="arrowhead-route" markerWidth="7" markerHeight="5" refX="7" refY="2.5" orient="auto">
      <polygon points="0 0, 7 2.5, 0 5" fill="#8C6239"/>
    </marker>
  </defs>

  <!-- Step 1: SPARQL Query -->
  <rect class="box" x="130" y="16" width="260" height="44"/>
  <text class="label" x="260" y="36">SPARQL Query</text>
  <text class="sublabel" x="260" y="51">EUR-Lex endpoint · 890 regulations</text>

  <line class="arrow" x1="260" y1="60" x2="260" y2="90"/>

  <!-- Step 2: Download Texts -->
  <rect class="box" x="130" y="90" width="260" height="44"/>
  <text class="label" x="260" y="110">Download Full Texts</text>
  <text class="sublabel" x="260" y="125">CELLAR API · 5 million words</text>

  <line class="arrow" x1="260" y1="134" x2="260" y2="164"/>

  <!-- Step 3: Extract Preamble -->
  <rect class="box" x="130" y="164" width="260" height="44"/>
  <text class="label" x="260" y="184">Extract Preamble</text>
  <text class="sublabel" x="260" y="199">Title + recitals · ~1,000–3,000 tokens</text>

  <line class="arrow" x1="260" y1="208" x2="260" y2="238"/>

  <!-- Step 4: Classify Domain (LLM) -->
  <rect class="box-llm" x="110" y="238" width="300" height="44"/>
  <text class="label-llm" x="260" y="258">Prompt 1: Classify Domain</text>
  <text class="sublabel" x="260" y="273">Which of 21 EuroVoc domains?</text>

  <line class="arrow" x1="260" y1="282" x2="260" y2="312"/>

  <!-- Step 5: Classify Impact (LLM) -->
  <rect class="box-llm" x="110" y="312" width="300" height="44"/>
  <text class="label-llm" x="260" y="332">Prompt 2: Classify Impact</text>
  <text class="sublabel" x="260" y="347">Routine · Moderate · High</text>

  <!-- Main arrow down to Evaluate -->
  <line class="arrow" x1="260" y1="356" x2="260" y2="386"/>

  <!-- Route branch: exits right edge of Impact box, curves to Briefing Model -->
  <path class="arrow-route" d="M 410 334 Q 430 334, 440 350"/>
  <!-- Briefing Model box -->
  <rect class="box-route" x="440" y="350" width="105" height="40"/>
  <text class="label-llm" x="492" y="368" font-size="11px">Briefing Model</text>
  <text class="sublabel" x="492" y="382" font-size="9px">full document in</text>
  <!-- Label for the branch -->
  <text class="route-label" x="416" y="326">if HIGH</text>

  <!-- Arrow from Briefing Model down and left to Output -->
  <line class="arrow-route-plain" x1="492" y1="390" x2="492" y2="552"/>
  <line class="arrow-route" x1="492" y1="552" x2="410" y2="552"/>
  <text class="route-label" x="497" y="410">Editorial</text>
  <text class="route-label" x="497" y="422">Briefing</text>

  <!-- Step 6: Evaluate -->
  <rect class="box" x="110" y="386" width="300" height="44"/>
  <text class="label" x="260" y="406">Compare with EuroVoc</text>
  <text class="sublabel" x="260" y="421">Human ground truth · 21 domains</text>

  <line class="arrow" x1="260" y1="430" x2="260" y2="460"/>

  <!-- Step 7: Agreement Analysis -->
  <rect class="box" x="110" y="460" width="300" height="44"/>
  <text class="label" x="260" y="480">Cross-Model Agreement</text>
  <text class="sublabel" x="260" y="495">4 models · where do they converge?</text>

  <line class="arrow" x1="260" y1="504" x2="260" y2="534"/>

  <!-- Output -->
  <rect class="box" x="110" y="534" width="300" height="36"/>
  <text class="sublabel" x="260" y="556">Classified corpus + disagreement map + briefings</text>
</svg>
